<?xml version="1.0" encoding="UTF-8"?>
<svg id="Layer_1" xmlns="http://www.w3.org/2000/svg" version="1.1" viewBox="0 0 695.12 610.99">
  <!-- Generator: Adobe Illustrator 30.0.0, SVG Export Plug-In . SVG Version: 2.1.1 Build 123)  -->
  <defs>
    <style>
      .st0 {
        fill: #0b0c0d;
      }
    </style>
  </defs>
  <path class="st0" d="M263.86,210.99c17.94-20.11,31.54-44.8,40.4-70.28-14.98-15.43-34.32-19.69-54.9-21.71-4.08-.4-7.26-1.11-12-1-1.33.03-2.67-.06-4,0-.16,0-.35.03-.55.04-2.48.1-5.85-.9-7.45.96-21.98,1.83-40.23,6.09-59.67,16.83-27.99,15.46-52.31,48.85-21.34,75.17-.47-3.09-3.22-5.1-4.48-8.01-12.43-28.41,24.33-49.34,47.44-53.54,31.92-5.81,83.8,4.1,80.93,45.93l-4.38,15.62Z"/>
  <path class="st0" d="M343.38,40.43c10.09,10.09,17.74,23.66,25.5,35.55l8.66-13.32c3.99-4.57,7.35-9.66,11.22-14.29,1.4-1.68,8.79-8.19,8.54-9.74-10.08-8.88-18.48-20.13-25.31-31.75-1.22-2.07-1.46-5.78-3.6-6.88-4.17,10.85-11.35,22.69-19.49,31.02-2.48,2.54-5.89,3.99-7.89,5.89-2.27,2.18.98,2.13,2.38,3.52Z"/>
  <path class="st0" d="M691.86,469.99c-31.54,26.07-59.3,38.6-100.17,21.18-79.2-33.76-93.06-146.61-174.35-180.65-1.85-.78-4.05-.98-5.97-1.54l37.26-10.22c24.21-8.77,43.34-21.68,58.73-41.77,27.71-36.15,29.04-86.28-2-121-28.05-31.38-73.29-41.44-114-43-7.22-1.76-15.95-1.1-23.51-1.02-1.69.02-4.45-.64-5.49,1.02-38.02,1.22-75.06,10.81-111.99,19.01l33.18,5.31c12.1,1.83,33.82,13.14,33.82,27.18v159.5c17.9.83,36.74.71,54-4l1-173-.11-1.86c-8.2-1.61-15.41-6.76-23.89-7.15.46-1.49,5.16-1.88,6.51-1.98,41.78-3.19,89.67,14.86,106.25,55.73,17.09,42.12,1.57,83.17-33.76,109.26-33.77,24.93-87.22,33.39-127.56,26.06-1.45-.26-2.99-.01-4.44-.05,5.68,3.89,11.16,7.64,16.53,12,.92.74,2.45.73,3.13,1.32,4.16,3.61,8.09,10.62,13.34,13.67.12.27-.11.7,0,1,.63,1.78,7.34,10.02,9.17,13.33,7.14,12.9,9.99,25.12,11.83,39.67v18c-4.06,37.62-20.49,62.96-47,89-44.88,36.77-104.03,54.43-162,56-1.33.04-2.67-.02-4,0-5.48.09-11.02-.21-16.51,0-1.21.05-3.72-.75-3.48.99,8.34,2.24,16.72,4.53,24.99,7.01,20.8,6.26,63.54,16.75,69.94,40.56l2.05,11.43c6.33-11.46,9.77-21.9,4.21-34.69l-6.2-9.3c38.75-3.52,76.01-19.68,104.53-45.98,10.19-9.39,17.05-18.61,24.47-30.03,20.53-31.62,29.69-61.76,31-100,1.66-1.04,1-3.79,1.02-5.49.07-7,.09-14.03,0-21.03-.02-1.69.64-4.45-1.02-5.49-.1-6.16.98-14.59-1-20-1.14-3.12-7.44-6.96-10.69-8.81-3.23-1.83-6.8-3.05-10.3-4.2-.26-1.77,2.25-.98,3.25-.76,46.86,10.24,70.25,65.69,93.72,102.29,21.27,33.18,42.45,60.61,77.02,80.48,20.24,11.64,39.27,18.54,63,20,4.81.3,11.72.62,16-1,.33-.01.67.02,1,0,20.22-1.06,34.76-5.8,52-16,13.26-7.84,25.23-17.68,33.82-30.68,1.9-2.88,10.56-16.84,2.68-10.32ZM512.35,181.99l-4.68-18.8-7.3-17.19c7.7,9.84,12.03,23.43,11.98,35.99ZM342.36,179.99v20s0-42.99,0-42.99v22.99ZM343.37,274.99h-1.01v-50.99s1.01,0,1.01,0v71.99s0-20.99,0-20.99ZM478.88,182.98c3.39,15.47,3.06,28.61-.52,44.01-1.72.25-1.06-2.36-.97-3.47.26-3.54,1.74-7.52,1.97-11.04.8-12.5-.96-24.25-2.97-36.48,1.65.87,2.1,5.16,2.5,6.98ZM532.35,494.99h-.97c.37-2.19-1.09-2.16-3.01-2v-.98c2.27-.35,4.27.4,3.98,2.98ZM526.38,488.74c.68,0,1.23.55,1.23,1.23s-.55,1.24-1.23,1.24-1.24-.55-1.24-1.24.55-1.23,1.24-1.23ZM440.37,339c1.88-.43,2.37,1.06,3.5,1.99,12.65,10.49,25.31,27.35,30.49,43l-15.57-23.91c-4.6-6.59-11.37-11.49-16.42-17.58-.93-1.13-2.42-1.62-1.99-3.5ZM431.36,331c.68.35-.59,1.7-1.99.98-.68-.35.59-1.7,1.99-.98ZM427.37,361.98c-.68-.35.59-1.7,1.99-.98.68.35-.59,1.7-1.99.98ZM431.38,366.21c-.68,0-1.24-.55-1.24-1.24s.55-1.23,1.24-1.23,1.23.55,1.23,1.23-.55,1.24-1.23,1.24ZM433.38,335.21c-.68,0-1.24-.55-1.24-1.24s.55-1.23,1.24-1.23,1.23.55,1.23,1.23-.55,1.24-1.23,1.24ZM435.35,370.99h-.98c-.5-4.16,1.48-4.16.98,0ZM435.37,335c1.04-1.02,4.01,1.99,2.99,2.99-1.04,1.02-4.01-1.99-2.99-2.99ZM518.36,483.99c-.67.7-8.04-5.62-9.01-6.48-11.14-9.9-22.09-24.03-30.8-36.2-15.63-21.82-28.24-46.01-42.2-68.8l1.99-.51c21.15,34.04,40.15,70.28,67.99,99.52,3.13,3.29,7.32,5.99,10.05,8.95,1.01,1.1,2.35,1.73,1.97,3.52ZM519.61,485.76l1.52-1.52,3.99,3.99-1.52,1.52-3.99-3.99Z"/>
  <path class="st0" d="M202.34,424.99c2.58-4.62,5.86-10.08,9.05-14.25,3.22-4.2,8.24-10.31,12.96-12.25-6.96-4.74-15.48-10.58-21.49-16.51-1.6-1.58-4.98-7.53-5.52-7.99-1.82-1.51-4.54,5.49-5.57,6.9-5.25,7.16-11.06,14.46-18.4,19.59,10.68,6.97,20.6,14.89,28.98,24.5Z"/>
  <path class="st0" d="M155.86,394.01c-6.5,9.93-13.78,19.41-23.48,26.48,10.25,6.77,20.88,13.89,27.48,24.5,5.9-8.03,11.05-16.8,18-23.96.95-.98,5.86-3.2,4.51-5.02-.1-.14-2.23-.43-3.31-1.17-8.58-5.89-16.65-12.74-23.19-20.82Z"/>
  <path class="st0" d="M214.36,526.99c.33-.04.67.02,1,0,4.23-.2,10.9-4.4,15-6,.02.04.72.02,1,0,2.38-.19,17.79-7.74,21.04-9.46,5.18-2.74,10.04-6.39,14.96-9.54,18.56-11.88,31.03-22.12,44-40,26.51-36.55,31.44-75.29,8-116-11.34-19.7-34.21-41.46-55-51-.27-.13-.72.12-1,0-1.16-1.2-2.49-2.27-4-3-.26-.13-.7.12-1,0-.07-.03.32-.85-1-1-.29-.03-.72-.06-1,0,.09-.81-.29-.92-1-1-.29-.04-.71-.05-1,0-6.78-5.51-15.34-8.12-23-12-39.53-20.01-145.63-56.53-105.41-117.91,27.3-41.67,100.78-49.07,144.63-62.37,27.71-8.4,44.48-23.73,50.78-52.71-37.14,41.24-96.99,44.38-146.24,64.25-44,17.75-103.21,61.03-105.75,112.75-1.69,4.26-1.66,11.95,0,16,4.8,84.56,129.59,99.75,182.01,144.49,33.37,28.47,44.12,79.81,4.99,108.51-33.41,24.51-92.28,30.25-132.48,25.98-16.24-1.72-31.03-7.38-46.52-11.98,1.03-1.99,3.32-.63,4.78-.29,59.69,14.11,136.45-11.81,172.18-62.49,2.48-3.51,7.45-10.28,6.55-14.22-24.85,27.77-60.79,47.62-97.3,55.7-41.65,9.22-100.13.77-121.09-41.33-25.36-50.95,41.72-104.47,87.91-92.91,2.25.56,11.3,5.06,11.96,4.53,1.07-.85-4.58-5.69-5.07-6.43-28.87-17.88-69.26-1.92-93.82,17.03-50.06,38.64-61.77,102.31-9.1,144.4,49.08,39.23,122.9,36.79,180,18ZM217.97,329.9l-30.6-16.9c7.03,1.76,14.14,5.96,20.6,9.41.25.13.39,1.1,1.16,1.52,1.63.88,9.16,3,10.23,4.08.41.42.34,2.71-1.39,1.89ZM220.37,330c.19-.19,3.86.85,3.99,1.01,2.73,3.35-6.38,1.33-3.99-1.01ZM225.37,333c.19-.19,3.86.85,3.99,1.01,2.73,3.35-6.38,1.33-3.99-1.01ZM234.63,339.03c-1.33-.68-8.32-1.77-2.29-3.01l4.01,4.97c-1.54.37-.58-1.38-1.72-1.96ZM156.69,282.17c-28.44-16.97-54.52-36.97-58.37-72.63l1.03-8.54c1.88,37.89,35.4,61.12,65.34,78.17,44.57,25.37,121.34,51.82,136.15,106.85.57,2.13,2.52,9.95,2.52,11.48,0,7.21.69,16.06,0,23-.05.49-1.04,5.54-1.99,5.5,5.63-83.47-87.21-109.53-144.68-143.82Z"/>
</svg>