<?xml version="1.0" encoding="UTF-8"?>
<svg id="Layer_1" xmlns="http://www.w3.org/2000/svg" version="1.1" viewBox="0 0 379.22 105.57">
  <!-- Generator: Adobe Illustrator 30.0.0, SVG Export Plug-In . SVG Version: 2.1.1 Build 123)  -->
  <defs>
    <style>
      .st0 {
        fill: #1d1d1b;
      }
    </style>
  </defs>
  <g>
    <path d="M15.31,90.36c-5.31-1.29-9.54-3.85-12.29-8.48C.8,78.15-.11,74.06.01,69.78c.22-7.77,3.35-14.1,9.41-19.09,5.76-4.75,12.35-8.07,18.86-11.59,2.99-1.62,6.01-3.31,8.69-5.38,5.86-4.53,7.74-10.57,5.91-17.76-1.46-5.74-4.5-10.5-8.93-14.4-.43-.37-.85-.76-1.26-1.14-.03-.03-.03-.11-.1-.43.57.31,1,.51,1.39.77,13.28,9.08,14.88,26.55,7.09,37.41-2.84,3.96-6.93,6.34-11.11,8.58-4.16,2.24-8.35,4.42-12.46,6.75-5.64,3.19-9.8,7.56-10.78,14.3-.83,5.74,2.83,11.78,8.29,13.67.2.07.44.05.69.07.69-2.69,1.33-5.33,2.05-7.94,1.94-6.97,6.27-12.27,11.85-16.67,2.52-1.99,5.27-3.53,8.38-4.46,7.71-2.29,15.02,2.86,15.28,10.92.3,9.08-3.77,16.12-11.06,21.09-6.25,4.26-13.3,6.7-21.02,6.63-.95,0-1.9-.13-3.24-.23.39.69.56,1.2.9,1.58,3.3,3.65,7.34,5.19,12.26,4.36,4.35-.73,7.89-3.15,11.49-5.44,4.7-2.99,9.29-6.19,14.65-7.94,2.69-.88,5.45-1.13,8.2-.03.91.36,1.4.87,1.39,1.88-.02,2.26,0,4.52,0,6.67-.4.14-.53.23-.61.2-4.92-2.05-9.44-.53-13.7,1.85-4.91,2.74-9.64,5.8-14.47,8.69-2.51,1.51-5.2,2.62-8.15,2.83-6.17.43-12.96-2.77-14.16-12.38-.11-.9-.26-1.79-.41-2.8ZM16.68,81.89c.77.18,1.09.28,1.42.34,7.16,1.26,13.93-.03,20.36-3.24,3.77-1.88,7.05-4.39,8.95-8.3,2.52-5.18-.04-9.94-5.71-10.28-2.15-.13-4.51.12-6.51.89-7.36,2.8-12.69,8.03-16.43,14.87-.95,1.73-1.38,3.75-2.08,5.73ZM39.62,55.8c.61.34.7.41.81.44.16.04.34.08.5.07,2.94-.29,5.35.57,7.09,3.08.21.3.78.35,1.62.69-.23-.94-.24-1.45-.46-1.84-1.37-2.47-5.55-4.29-8.28-3.57-.44.11-.76.65-1.29,1.14Z"/>
    <path d="M43.7,40.78c2.71-.01,4.69,2.01,4.67,4.75-.02,2.43-2.19,4.55-4.6,4.51-2.56-.04-4.69-2.14-4.71-4.63-.02-2.55,2.06-4.63,4.64-4.64Z"/>
  </g>
  <g>
    <path class="st0" d="M131.32,70.03h-15.95l-20.13-27.82c-1.9.06-3.96.06-6.17,0v17.28c0,3.67.52,6.08,1.57,7.22s3.37,1.71,6.98,1.71v1.61h-25.54v-1.61c3.61,0,5.93-.57,6.98-1.71,1.04-1.14,1.57-3.54,1.57-7.22V21.04c0-3.67-.52-6.08-1.57-7.22-1.04-1.14-3.37-1.71-6.98-1.71v-1.61h21.65c7.09,0,12.56.82,16.43,2.47,5.63,2.41,8.45,6.68,8.45,12.82,0,8.04-4.91,13.14-14.72,15.29,2.4,3.74,4.81,7.44,7.22,11.11,3.1,4.69,5.98,8.23,8.64,10.63,3.67,3.23,7.53,5.1,11.58,5.6v1.61ZM89.07,39.46h2.47c4.81,0,8.7-.95,11.68-2.85,3.61-2.22,5.41-5.6,5.41-10.16,0-3.8-1.17-6.85-3.51-9.16-2.34-2.31-5.41-3.47-9.21-3.47-1.71,0-3.99.28-6.84.85v24.78Z"/>
    <path class="st0" d="M149.26,13.73v23.55h13.01c3.35,0,5.73-.62,7.12-1.85,1.39-1.23,2.15-3.47,2.28-6.69h1.71v20.6h-1.71c-.51-3.48-1.3-5.79-2.37-6.93-1.27-1.27-3.61-1.9-7.03-1.9h-13.01v20.51c0,2.22.28,3.74.85,4.56.57.82,1.93,1.23,4.08,1.23h10.63c4.56,0,8.01-.95,10.35-2.85,1.9-1.46,4.02-4.4,6.36-8.83h1.8l-5.13,14.91h-45.86v-1.61c3.61,0,5.92-.57,6.93-1.71,1.01-1.14,1.52-3.54,1.52-7.22V20.85c0-3.73-.47-6.12-1.42-7.17-.95-1.04-3.29-1.57-7.03-1.57v-1.61h45.86l.57,13.1h-1.71c-.7-3.99-1.79-6.63-3.28-7.93-1.49-1.3-4.22-1.95-8.21-1.95h-16.33Z"/>
    <path class="st0" d="M186.96,70.03v-1.61c3.54.13,5.89-.47,7.03-1.8,1.01-1.14,1.52-3.51,1.52-7.12V21.04c0-3.61-.52-6.03-1.57-7.26-1.04-1.23-3.37-1.79-6.98-1.66v-1.61h24.31c23.8,0,35.7,9.84,35.7,29.53,0,9.81-3.2,17.34-9.59,22.6-5.89,4.94-13.83,7.41-23.83,7.41h-26.59ZM203.95,65.76c3.67.82,6.77,1.23,9.3,1.23,7.41,0,13.29-2.63,17.66-7.88,3.99-4.94,5.98-11.17,5.98-18.7s-2.03-14.02-6.08-18.89c-4.37-5.13-10.32-7.69-17.85-7.69-2.72,0-5.73.44-9.02,1.33v50.61Z"/>
    <path class="st0" d="M291.59,50.1h-23.17c-1.08,2.41-2.18,4.81-3.32,7.22-1.39,3.42-2.09,5.86-2.09,7.31,0,2.22,2.25,3.48,6.74,3.8v1.61h-18.61v-1.61c2.72-.44,4.84-1.65,6.36-3.61.82-1.08,1.96-3.29,3.42-6.65l20.89-48.99h1.52l20.7,49.56c1.33,3.1,2.56,5.29,3.7,6.55,1.65,1.9,3.83,2.94,6.55,3.13v1.61h-23.45v-1.61c3.99-.13,5.98-1.36,5.98-3.7,0-1.58-.66-4.02-1.99-7.31-1.08-2.47-2.15-4.9-3.23-7.31ZM290.22,46.87l-10.02-23.99-10.44,23.99h20.46Z"/>
    <path class="st0" d="M356.53,50.1h-23.17c-1.08,2.41-2.18,4.81-3.32,7.22-1.39,3.42-2.09,5.86-2.09,7.31,0,2.22,2.25,3.48,6.74,3.8v1.61h-18.61v-1.61c2.72-.44,4.84-1.65,6.36-3.61.82-1.08,1.96-3.29,3.42-6.65l20.89-48.99h1.52l20.7,49.56c1.33,3.1,2.56,5.29,3.7,6.55,1.65,1.9,3.83,2.94,6.55,3.13v1.61h-23.45v-1.61c3.99-.13,5.98-1.36,5.98-3.7,0-1.58-.66-4.02-1.99-7.31-1.08-2.47-2.15-4.9-3.23-7.31ZM355.16,46.87l-10.02-23.99-10.44,23.99h20.46Z"/>
  </g>
  <g>
    <path class="st0" d="M78.46,99.43l-4.77-18.81h2.57l2.23,9.52c.56,2.34,1.06,4.69,1.4,6.5h.06c.31-1.87.89-4.1,1.54-6.53l2.51-9.49h2.54l2.29,9.54c.53,2.23,1.03,4.47,1.31,6.45h.06c.39-2.07.92-4.16,1.51-6.5l2.48-9.49h2.48l-5.33,18.81h-2.54l-2.37-9.8c-.59-2.4-.98-4.24-1.23-6.14h-.06c-.31,1.87-.75,3.71-1.45,6.14l-2.68,9.8h-2.54Z"/>
    <path class="st0" d="M109.57,82.13c0,.84-.59,1.51-1.56,1.51-.89,0-1.48-.67-1.48-1.51s.61-1.54,1.53-1.54,1.51.67,1.51,1.54ZM106.84,99.43v-13.51h2.46v13.51h-2.46Z"/>
    <path class="st0" d="M124.7,82.69v3.24h3.52v1.87h-3.52v7.28c0,1.67.47,2.62,1.84,2.62.67,0,1.06-.06,1.42-.17l.11,1.87c-.47.17-1.23.33-2.18.33-1.14,0-2.07-.39-2.65-1.03-.67-.75-.95-1.95-.95-3.54v-7.37h-2.09v-1.87h2.09v-2.51l2.4-.73Z"/>
    <path class="st0" d="M139.34,79.62h2.46v8.46h.06c.39-.7,1-1.34,1.76-1.76.73-.42,1.59-.67,2.51-.67,1.81,0,4.72,1.12,4.72,5.75v8.04h-2.46v-7.76c0-2.18-.81-3.99-3.13-3.99-1.59,0-2.82,1.12-3.29,2.43-.14.36-.17.73-.17,1.17v8.15h-2.46v-19.81Z"/>
    <path class="st0" d="M180.47,99.43v-7.98l-5.97-10.83h2.79l2.65,5.19c.7,1.42,1.28,2.57,1.87,3.88h.06c.5-1.23,1.17-2.46,1.9-3.88l2.71-5.19h2.73l-6.28,10.8v8.01h-2.46Z"/>
    <path class="st0" d="M209.77,92.57c0,5-3.49,7.17-6.73,7.17-3.63,0-6.47-2.68-6.47-6.95,0-4.49,2.99-7.14,6.7-7.14s6.5,2.82,6.5,6.92ZM199.08,92.71c0,2.96,1.67,5.19,4.07,5.19s4.1-2.2,4.1-5.25c0-2.29-1.14-5.16-4.05-5.16s-4.13,2.68-4.13,5.22Z"/>
    <path class="st0" d="M232.54,95.72c0,1.42.03,2.65.11,3.71h-2.18l-.14-2.21h-.06c-.61,1.09-2.07,2.51-4.47,2.51-2.12,0-4.66-1.2-4.66-5.92v-7.9h2.46v7.45c0,2.57.81,4.33,3.01,4.33,1.65,0,2.79-1.14,3.24-2.26.14-.33.22-.78.22-1.26v-8.26h2.46v9.8Z"/>
    <path class="st0" d="M262.4,93.52l-1.95,5.92h-2.51l6.42-18.81h2.9l6.42,18.81h-2.6l-2.01-5.92h-6.67ZM268.59,91.62l-1.87-5.41c-.42-1.23-.7-2.34-.98-3.43h-.06c-.28,1.09-.56,2.26-.95,3.4l-1.84,5.44h5.69Z"/>
    <path class="st0" d="M284.63,79.62h2.46v19.81h-2.46v-19.81Z"/>
    <path class="st0" d="M300.57,85.92l1.81,6.87c.36,1.51.73,2.9.98,4.3h.08c.31-1.37.75-2.82,1.2-4.27l2.21-6.89h2.06l2.09,6.75c.5,1.62.89,3.04,1.2,4.41h.08c.22-1.37.59-2.79,1.03-4.38l1.93-6.78h2.43l-4.35,13.51h-2.23l-2.06-6.45c-.47-1.51-.87-2.85-1.2-4.44h-.06c-.33,1.62-.75,3.01-1.23,4.46l-2.18,6.42h-2.23l-4.08-13.51h2.51Z"/>
    <path class="st0" d="M337.87,96.2c0,1.17.06,2.32.2,3.24h-2.21l-.2-1.7h-.08c-.75,1.06-2.2,2.01-4.13,2.01-2.74,0-4.13-1.93-4.13-3.88,0-3.27,2.9-5.05,8.12-5.02v-.28c0-1.09-.31-3.13-3.07-3.1-1.28,0-2.6.36-3.54,1l-.56-1.65c1.12-.7,2.76-1.17,4.46-1.17,4.13,0,5.14,2.82,5.14,5.5v5.05ZM335.5,92.54c-2.68-.06-5.72.42-5.72,3.04,0,1.62,1.06,2.34,2.29,2.34,1.79,0,2.93-1.12,3.32-2.26.08-.28.11-.56.11-.78v-2.34Z"/>
    <path class="st0" d="M350.88,85.92l2.93,7.98c.33.89.67,1.95.89,2.76h.06c.25-.81.53-1.84.87-2.82l2.68-7.93h2.6l-3.68,9.63c-1.76,4.63-2.96,6.98-4.63,8.46-1.23,1.03-2.4,1.45-3.01,1.56l-.61-2.04c.61-.2,1.42-.59,2.15-1.2.67-.53,1.48-1.48,2.07-2.74.11-.25.2-.45.2-.59s-.06-.33-.2-.64l-4.97-12.45h2.68Z"/>
    <path class="st0" d="M370.99,96.95c.75.45,2.04.95,3.27.95,1.76,0,2.6-.87,2.6-2.01s-.7-1.79-2.48-2.46c-2.46-.89-3.6-2.21-3.6-3.82,0-2.18,1.79-3.96,4.66-3.96,1.37,0,2.57.36,3.29.84l-.59,1.79c-.53-.33-1.51-.81-2.76-.81-1.45,0-2.23.84-2.23,1.84,0,1.12.78,1.62,2.54,2.32,2.32.87,3.54,2.04,3.54,4.05,0,2.4-1.87,4.07-5.02,4.07-1.48,0-2.85-.39-3.8-.95l.59-1.84Z"/>
  </g>
</svg>